<svg width="13" height="13" viewBox="0 0 13 13" fill="none" xmlns="http://www.w3.org/2000/svg">
<path d="M5.17068 3.1133L9.88401 7.8273L5.10201 12.61C4.88066 12.8313 4.58849 12.9677 4.27668 12.9953L4.15934 13H0.670678C0.504796 13 0.34475 12.9387 0.221231 12.828C0.0977113 12.7173 0.0194114 12.5649 0.001345 12.4L-0.00265503 12.3266V8.83797C-0.00257854 8.52494 0.107634 8.22191 0.308678 7.98197L0.388678 7.8953L5.17068 3.1133ZM7.26401 1.01997C7.49995 0.784005 7.81579 0.645086 8.14917 0.630645C8.48254 0.616204 8.80922 0.727292 9.06468 0.941971L9.14934 1.01997L11.978 3.84864C12.2138 4.08454 12.3526 4.40025 12.367 4.73347C12.3815 5.06669 12.2705 5.39322 12.056 5.64864L11.978 5.73397L10.8273 6.88464L6.11401 2.17064L7.26401 1.01997Z" fill="#323749"/>
</svg>
